{
    "asset" : {
        "generator" : "Khronos glTF Blender I/O v1.6.16",
        "version" : "2.0"
    },
    "scene" : 0,
    "scenes" : [
        {
            "name" : "Scene",
            "nodes" : [
                0,
                1,
                2,
                3
            ]
        }
    ],
    "nodes" : [
        {
            "mesh" : 0,
            "name" : "Cylinder",
            "rotation" : [
                0.5,
                0.5,
                -0.5,
                -0.5
            ],
            "scale" : [
                1,
                2.579110860824585,
                1
            ],
            "translation" : [
                0,
                0,
                -0.7343683242797852
            ]
        },
        {
            "mesh" : 1,
            "name" : "Circle",
            "rotation" : [
                0,
                0,
                0.9972830414772034,
                -0.07366515696048737
            ],
            "translation" : [
                0,
                0.5795772075653076,
                0
            ]
        },
        {
            "mesh" : 2,
            "name" : "Circle.001",
            "rotation" : [
                0.9829634428024292,
                -0.07260754704475403,
                0.1683933436870575,
                -0.012438536621630192
            ],
            "scale" : [
                0.7136050462722778,
                0.7136050462722778,
                0.7136050462722778
            ],
            "translation" : [
                0.4500468969345093,
                0.5795772075653076,
                -0.3267141580581665
            ]
        },
        {
            "mesh" : 3,
            "name" : "Circle.002",
            "rotation" : [
                0.7893865704536438,
                0.2286442667245865,
                -0.5131881237030029,
                0.24744409322738647
            ],
            "scale" : [
                0.41726812720298767,
                0.41726815700531006,
                0.41726815700531006
            ],
            "translation" : [
                -0.08336859941482544,
                0.752797544002533,
                0.35686764121055603
            ]
        }
    ],
    "materials" : [
        {
            "doubleSided" : true,
            "name" : "Material.001",
            "pbrMetallicRoughness" : {
                "baseColorFactor" : [
                    0.0657384917140007,
                    0.014238554053008556,
                    0.012058832682669163,
                    1
                ],
                "metallicFactor" : 0,
                "roughnessFactor" : 0.459090918302536
            }
        },
        {
            "doubleSided" : true,
            "name" : "mushroom",
            "pbrMetallicRoughness" : {}
        }
    ],
    "meshes" : [
        {
            "name" : "Cylinder",
            "primitives" : [
                {
                    "attributes" : {
                        "POSITION" : 0,
                        "NORMAL" : 1,
                        "TEXCOORD_0" : 2
                    },
                    "indices" : 3,
                    "material" : 0
                }
            ]
        },
        {
            "name" : "Circle",
            "primitives" : [
                {
                    "attributes" : {
                        "POSITION" : 4,
                        "NORMAL" : 5,
                        "TEXCOORD_0" : 6
                    },
                    "indices" : 7,
                    "material" : 1
                }
            ]
        },
        {
            "name" : "Circle.001",
            "primitives" : [
                {
                    "attributes" : {
                        "POSITION" : 8,
                        "NORMAL" : 9,
                        "TEXCOORD_0" : 10
                    },
                    "indices" : 7,
                    "material" : 1
                }
            ]
        },
        {
            "name" : "Circle.002",
            "primitives" : [
                {
                    "attributes" : {
                        "POSITION" : 11,
                        "NORMAL" : 12,
                        "TEXCOORD_0" : 13
                    },
                    "indices" : 7,
                    "material" : 1
                }
            ]
        }
    ],
    "accessors" : [
        {
            "bufferView" : 0,
            "componentType" : 5126,
            "count" : 5289,
            "max" : [
                1.1038124561309814,
                1,
                1
            ],
            "min" : [
                -0.12960226833820343,
                -1,
                -1.061823844909668
            ],
            "type" : "VEC3"
        },
        {
            "bufferView" : 1,
            "componentType" : 5126,
            "count" : 5289,
            "type" : "VEC3"
        },
        {
            "bufferView" : 2,
            "componentType" : 5126,
            "count" : 5289,
            "type" : "VEC2"
        },
        {
            "bufferView" : 3,
            "componentType" : 5123,
            "count" : 30720,
            "type" : "SCALAR"
        },
        {
            "bufferView" : 4,
            "componentType" : 5126,
            "count" : 352,
            "max" : [
                0.965273916721344,
                -0.15116363763809204,
                0.9652738571166992
            ],
            "min" : [
                -0.965273916721344,
                -2.9862723350524902,
                -0.965273916721344
            ],
            "type" : "VEC3"
        },
        {
            "bufferView" : 5,
            "componentType" : 5126,
            "count" : 352,
            "type" : "VEC3"
        },
        {
            "bufferView" : 6,
            "componentType" : 5126,
            "count" : 352,
            "type" : "VEC2"
        },
        {
            "bufferView" : 7,
            "componentType" : 5123,
            "count" : 2010,
            "type" : "SCALAR"
        },
        {
            "bufferView" : 8,
            "componentType" : 5126,
            "count" : 352,
            "max" : [
                0.965273916721344,
                -0.15116363763809204,
                0.9652738571166992
            ],
            "min" : [
                -0.965273916721344,
                -2.9862723350524902,
                -0.965273916721344
            ],
            "type" : "VEC3"
        },
        {
            "bufferView" : 9,
            "componentType" : 5126,
            "count" : 352,
            "type" : "VEC3"
        },
        {
            "bufferView" : 10,
            "componentType" : 5126,
            "count" : 352,
            "type" : "VEC2"
        },
        {
            "bufferView" : 11,
            "componentType" : 5126,
            "count" : 352,
            "max" : [
                0.965273916721344,
                -0.15116363763809204,
                0.9652738571166992
            ],
            "min" : [
                -0.965273916721344,
                -2.9862723350524902,
                -0.965273916721344
            ],
            "type" : "VEC3"
        },
        {
            "bufferView" : 12,
            "componentType" : 5126,
            "count" : 352,
            "type" : "VEC3"
        },
        {
            "bufferView" : 13,
            "componentType" : 5126,
            "count" : 352,
            "type" : "VEC2"
        }
    ],
    "bufferViews" : [
        {
            "buffer" : 0,
            "byteLength" : 63468,
            "byteOffset" : 0
        },
        {
            "buffer" : 0,
            "byteLength" : 63468,
            "byteOffset" : 63468
        },
        {
            "buffer" : 0,
            "byteLength" : 42312,
            "byteOffset" : 126936
        },
        {
            "buffer" : 0,
            "byteLength" : 61440,
            "byteOffset" : 169248
        },
        {
            "buffer" : 0,
            "byteLength" : 4224,
            "byteOffset" : 230688
        },
        {
            "buffer" : 0,
            "byteLength" : 4224,
            "byteOffset" : 234912
        },
        {
            "buffer" : 0,
            "byteLength" : 2816,
            "byteOffset" : 239136
        },
        {
            "buffer" : 0,
            "byteLength" : 4020,
            "byteOffset" : 241952
        },
        {
            "buffer" : 0,
            "byteLength" : 4224,
            "byteOffset" : 245972
        },
        {
            "buffer" : 0,
            "byteLength" : 4224,
            "byteOffset" : 250196
        },
        {
            "buffer" : 0,
            "byteLength" : 2816,
            "byteOffset" : 254420
        },
        {
            "buffer" : 0,
            "byteLength" : 4224,
            "byteOffset" : 257236
        },
        {
            "buffer" : 0,
            "byteLength" : 4224,
            "byteOffset" : 261460
        },
        {
            "buffer" : 0,
            "byteLength" : 2816,
            "byteOffset" : 265684
        }
    ],
    "buffers" : [
        {
            "byteLength" : 268500,
            "uri" : "data:application/octet-stream;base64,"
        }
    ]
}
